# xmcd
#
# Track frame offsets: 
#        150
#        9397
#        20520
#        30815
#        42730
#        59335
#        71677
#        81387
#        90842
#        102290
#        113557
#        126222
#        136957
#        152492
#        165465
#        178580
#        193385
#        210932
#        223845
#        241815
#        258100
#        271400
#
# Disc length: 3829 seconds
#
# Revision: 2
# Processed by: cddbd v1.5.2PL0 Copyright (c) Steve Scherf et al.
# Submitted via: ExactAudioCopyFreeDBPlugin 1.0
#
DISCID=240ef316
DTITLE=Boogie Woogie Trio - The Boogie Woogie Trio Vol. 1
DYEAR=1995
DGENRE=Blues
TTITLE0=Boogie Woogie Prayer
TTITLE1=Foot Pedal Blues
TTITLE2=Jumpin' The Boogie
TTITLE3=Cuttin' The Boogie
TTITLE4=St. Louis Blues
TTITLE5=Lady Be Good
TTITLE6=The Sheik Of Araby
TTITLE7=Pistol Packin' Mama
TTITLE8=Rumboogie
TTITLE9=Boogie Woogie Man
TTITLE10=Pete Johnson - Yancey Special (Boogie Woogie)
TTITLE11=Pete Johnson - J. J. Boogie
TTITLE12=Pete Johnson - Swanee River Blues
TTITLE13=Pete Johnson - St. Louis Blues
TTITLE14=Meade Lux Lewis - Glendale Glide
TTITLE15=Meade Lux Lewis - St. Louis Blues
TTITLE16=Meade Lux Lewis - Boogie Tidal
TTITLE17=Meade Lux Lewis - Mr. Freddie Blues
TTITLE18=Meade Lux Lewis - Spoony Sam
TTITLE19=Meade Lux Lewis - Six Wheel Chaser
TTITLE20=Meade Lux Lewis - Meade's Boogie
TTITLE21=Meade Lux Lewis - Six Wheel Chaser
EXTD=
EXTT0=
EXTT1=
EXTT2=
EXTT3=
EXTT4=
EXTT5=
EXTT6=
EXTT7=
EXTT8=
EXTT9=
EXTT10=
EXTT11=
EXTT12=
EXTT13=
EXTT14=
EXTT15=
EXTT16=
EXTT17=
EXTT18=
EXTT19=
EXTT20=
EXTT21=
PLAYORDER=
